<svg xmlns="http://www.w3.org/2000/svg" viewBox="0 0 512 512">
  <defs>
    <linearGradient id="bgDeep" x1="0" y1="0" x2="1" y2="1">
      <stop offset="0%" stop-color="#08111f"></stop>
      <stop offset="100%" stop-color="#04070f"></stop>
    </linearGradient>

    <linearGradient id="cardDeep" x1="0" y1="0" x2="1" y2="1">
      <stop offset="0%" stop-color="#0f1c33"></stop>
      <stop offset="100%" stop-color="#091221"></stop>
    </linearGradient>

    <linearGradient id="lineDeep" x1="0" y1="0" x2="1" y2="0">
      <stop offset="0%" stop-color="#7db8ff"></stop>
      <stop offset="100%" stop-color="#9ce7ff"></stop>
    </linearGradient>

    <radialGradient id="coreGlow" cx="50%" cy="50%" r="50%">
      <stop offset="0%" stop-color="#b8ecff" stop-opacity="0.95"></stop>
      <stop offset="100%" stop-color="#7db8ff" stop-opacity="0.15"></stop>
    </radialGradient>
  </defs>

  <rect width="512" height="512" rx="72" fill="url(#bgDeep)"></rect>

  <circle cx="110" cy="100" r="88" fill="#7db8ff" opacity="0.05"></circle>
  <circle cx="412" cy="402" r="96" fill="#9ce7ff" opacity="0.05"></circle>

  <rect x="82" y="132" width="348" height="220" rx="26" fill="url(#cardDeep)" stroke="#7da8d9" stroke-opacity="0.38" stroke-width="3"></rect>

  <path d="M138 214h236" stroke="url(#lineDeep)" stroke-width="12" stroke-linecap="round" opacity="0.9"></path>
  <path d="M138 256h192" stroke="#d4e8f8" stroke-width="10" stroke-linecap="round" opacity="0.62"></path>
  <path d="M138 298h236" stroke="#d4e8f8" stroke-width="10" stroke-linecap="round" opacity="0.62"></path>

  <circle cx="350" cy="252" r="26" fill="url(#coreGlow)"></circle>
  <path d="M350 218l22 34-22 34-22-34z" fill="none" stroke="#9ce7ff" stroke-width="7" opacity="0.9"></path>

  <path d="M146 112c24 8 48 8 72 0s48-8 72 0 48 8 72 0" fill="none" stroke="#7db8ff" stroke-width="8" stroke-linecap="round" opacity="0.42"></path>
  <circle cx="162" cy="95" r="4" fill="#c9f4ff" opacity="0.65"></circle>
  <circle cx="314" cy="102" r="3.5" fill="#c9f4ff" opacity="0.5"></circle>
  <circle cx="338" cy="88" r="2.5" fill="#c9f4ff" opacity="0.45"></circle>

  <text x="256" y="404" text-anchor="middle" fill="#e0edf8" font-size="26" font-family="Georgia, 'Times New Roman', serif" letter-spacing="3">DEEP SEA TICKET</text>
  <text x="256" y="435" text-anchor="middle" fill="#8faece" font-size="14" font-family="Georgia, 'Times New Roman', serif" letter-spacing="2">A PASSAGE INTO QUIETER DEPTHS</text>
</svg>