<svg xmlns="http://www.w3.org/2000/svg" viewBox="0 0 512 512">
  <defs>
    <linearGradient id="bgSpecial" x1="0" y1="0" x2="1" y2="1">
      <stop offset="0%" stop-color="#10162a"></stop>
      <stop offset="100%" stop-color="#070b15"></stop>
    </linearGradient>

    <linearGradient id="cardSpecial" x1="0" y1="0" x2="1" y2="1">
      <stop offset="0%" stop-color="#161f39"></stop>
      <stop offset="100%" stop-color="#0d1324"></stop>
    </linearGradient>

    <linearGradient id="lineSpecial" x1="0" y1="0" x2="1" y2="0">
      <stop offset="0%" stop-color="#a9b7ff"></stop>
      <stop offset="100%" stop-color="#d7c4ff"></stop>
    </linearGradient>

    <radialGradient id="moonGlow" cx="50%" cy="50%" r="50%">
      <stop offset="0%" stop-color="#ffffff" stop-opacity="0.95"></stop>
      <stop offset="100%" stop-color="#d7c4ff" stop-opacity="0.15"></stop>
    </radialGradient>
  </defs>

  <rect width="512" height="512" rx="72" fill="url(#bgSpecial)"></rect>

  <circle cx="406" cy="106" r="70" fill="#d7c4ff" opacity="0.06"></circle>
  <circle cx="112" cy="400" r="80" fill="#a9b7ff" opacity="0.05"></circle>

  <rect x="82" y="132" width="348" height="220" rx="26" fill="url(#cardSpecial)" stroke="#8c93cc" stroke-opacity="0.4" stroke-width="3"></rect>

  <path d="M138 224h236" stroke="url(#lineSpecial)" stroke-width="12" stroke-linecap="round" opacity="0.9"></path>
  <path d="M138 264h206" stroke="#d8def2" stroke-width="10" stroke-linecap="round" opacity="0.65"></path>
  <path d="M138 304h236" stroke="#d8def2" stroke-width="10" stroke-linecap="round" opacity="0.65"></path>

  <circle cx="350" cy="252" r="30" fill="url(#moonGlow)"></circle>
  <circle cx="362" cy="248" r="30" fill="url(#cardSpecial)"></circle>

  <path d="M156 112c20-10 38-10 58 0s38 10 58 0 38-10 58 0" fill="none" stroke="#d7c4ff" stroke-width="9" stroke-linecap="round" opacity="0.5"></path>
  <path d="M164 94l4 8 9 1-6 6 2 9-9-4-8 4 1-9-6-6 9-1z" fill="#e8ebef" opacity="0.7"></path>
  <path d="M324 92l3 6 7 1-5 5 2 7-7-3-6 3 1-7-5-5 7-1z" fill="#e8ebef" opacity="0.55"></path>

  <text x="256" y="404" text-anchor="middle" fill="#e5e9f7" font-size="24" font-family="Georgia, 'Times New Roman', serif" letter-spacing="3">SPECIAL VOYAGE</text>
  <text x="256" y="435" text-anchor="middle" fill="#9aa7cc" font-size="14" font-family="Georgia, 'Times New Roman', serif" letter-spacing="2">A CHOSEN PASSAGE UNDER MOONLIGHT</text>
</svg>