<svg xmlns="http://www.w3.org/2000/svg" width="64" height="64" viewBox="0 0 528 528">
  <rect width="100%" height="100%" fill="#fff"/>
  <circle cx="264" cy="264" r="220" fill="none" stroke="#000" stroke-width="78" stroke-linecap="round"
          stroke-dasharray="1202.30 180.00" stroke-dashoffset="90.00"/>
  <path d="M 277.00 420.50 L 242.00 419.50 L 216.00 413.50 L 190.00 402.50 L 171.50 390.00 L 181.50 363.00 L 198.50 335.00 L 183.00 326.50 L 167.50 313.00 L 159.50 300.00 L 154.50 283.00 L 154.50 261.00 L 159.50 244.00 L 165.50 233.00 L 165.50 226.00 L 161.50 206.00 L 160.50 172.00 L 162.50 158.00 L 168.00 148.50 L 176.00 147.50 L 197.00 155.50 L 222.00 172.50 L 230.00 180.50 L 254.00 175.50 L 280.00 174.50 L 295.00 176.50 L 311.00 181.50 L 337.00 160.50 L 355.00 150.50 L 365.00 147.50 L 369.00 147.50 L 379.50 159.00 L 381.50 192.00 L 376.50 232.00 L 383.50 244.00 L 388.50 261.00 L 388.50 283.00 L 383.50 300.00 L 374.50 314.00 L 360.00 326.50 L 344.50 335.00 L 357.50 357.00 L 368.50 381.00 L 345.00 398.50 L 330.00 406.50 L 305.00 415.50 L 277.00 420.50 Z" fill="#000"/>
</svg>
